# xmcd
# 
# Track frame offsets:
#     150
#     28142
#     54997
#     82817
#     102160
#     129762
#     147157
#     174132
#     202588
#     221928
#     234385
#     251468
# 
# Disc length: 3683
# 
# Revision: 0
# Processed by: cddbd v1.5.2PL0 Copyright (c) Steve Scherf et al.
# Submitted via: fre:ac v1.0.17
# 
DISCID=900e610c
DTITLE=kenny Wayne Shepherd - Ledbetter Heights
DYEAR=1995
DGENRE=Blues
TTITLE0=Ledbetter Heights
TTITLE1=Born With A Broken Heart
TTITLE2=Deja Voodoo
TTITLE3=Aberdeen
TTITLE4=Shame, Shame, Shame
TTITLE5=One Foot On The Path
TTITLE6=Everybody Gets The Blues
TTITLE7=While We Cry  (Live)
TTITLE8=I'm Leaving You  (Commit A Crime)
TTITLE9=(Let Me Up)  I've Had Enough
TTITLE10=Riverside
TTITLE11=What's Goin' Down
EXTD=
EXTT0=
EXTT1=
EXTT2=
EXTT3=
EXTT4=
EXTT5=
EXTT6=
EXTT7=
EXTT8=
EXTT9=
EXTT10=
EXTT11=
PLAYORDER=
